<svg class="diagram-root" style="background: #f5f6f6" xmlns="http://www.w3.org/2000/svg" xmlns:xlink="http://www.w3.org/1999/xlink"><style>.diagram-root { font-family: "Helvetica Neue", sans-serif; font-size: 12px; } .t { overflow: visible; } .t-bg { y: 40; fill: #fff;   } .th { fill: #005aa0;   } .tht { fill: #fff; font-size: 14px;  } .tf { fill: #323c46; overflow: visible; } .tf.pk { fill: #005aa0; font-weight: bold; } .tf.fk { font-weight: bold; } .ty { fill: #adb1b5; font-weight: normal; text-anchor: end; } .r { fill: transparent; stroke: #c3c3c3; stroke-width: 1; } .l { stroke: 1; } .i { fill: #c2c7ce; stroke: #c2c7ce; } .i.ix { fill: #afb3b6; stroke: #000; } .fa { fill: transparent; overflow: visible; } .fa .bg.hover { fill: #f7f7f7; } .c { cy: 12; r: 4; stroke: #d2d2dc; fill: #d2d2dc; } .hr { fill: transparent; stroke: #323c46; stroke-opacity: 0.035; stroke-width: 13; } .dc { stroke: #fa5a3c; fill: #fa5a3c; } .x { stroke: white; stroke-width: 1; } .hl .th { fill: #1b9bff; } .hl .tht {  } .fhl .bg { fill: #e7f4ff; } .fhls .bg {  } .r.hl { stroke: #1b9bff; } .dim { opacity: 0.25; }</style><g class="drawing-wrapper" transform="translate(-211.92857142857127, -60.53571428571429) scale(1,1)"><g class="rs"><path d="M 706.79 280.18000000000006 m -1, 0 a 1,1 0 1,0 2,0 a 1,1 0 1,0 -2,0 M 706.79 280.18000000000006 m -0.5, 0 a 0.5,0.5 0 1,0 1,0 a 0.5,0.5 0 1,0 -1,0  M706.79 280.18000000000006 L706.79 280.18000000000006 718.79 280.18000000000006 M 706.79 286.18000000000006 m -1, 0 a 1,1 0 1,0 2,0 a 1,1 0 1,0 -2,0 M 706.79 286.18000000000006 m -0.5, 0 a 0.5,0.5 0 1,0 1,0 a 0.5,0.5 0 1,0 -1,0  M706.79 286.18000000000006 L706.79 286.18000000000006 713.79 280.18000000000006 706.79 274.18000000000006 M 706.79 274.18000000000006 m -1, 0 a 1,1 0 1,0 2,0 a 1,1 0 1,0 -2,0 M 706.79 274.18000000000006 m -0.5, 0 a 0.5,0.5 0 1,0 1,0 a 0.5,0.5 0 1,0 -1,0  M718.79 280.18000000000006 C 787.937441058037 280.18000000000006, 779.471441058037 419.18, 732.9 419.18 M 720.9 419.18 m -1, 0 a 1,1 0 1,0 2,0 a 1,1 0 1,0 -2,0 M 720.9 419.18 m -0.5, 0 a 0.5,0.5 0 1,0 1,0 a 0.5,0.5 0 1,0 -1,0  M720.9 419.18 L720.9 419.18 732.9 419.18 M726.9 425.18 L726.9 425.18 726.9 413.18" id="h321352475" class="r"></path><path d="M 380.05 222.54000000000002 m -1, 0 a 1,1 0 1,0 2,0 a 1,1 0 1,0 -2,0 M 380.05 222.54000000000002 m -0.5, 0 a 0.5,0.5 0 1,0 1,0 a 0.5,0.5 0 1,0 -1,0  M380.05 222.54000000000002 L380.05 222.54000000000002 392.05 222.54000000000002 M 380.05 228.54000000000002 m -1, 0 a 1,1 0 1,0 2,0 a 1,1 0 1,0 -2,0 M 380.05 228.54000000000002 m -0.5, 0 a 0.5,0.5 0 1,0 1,0 a 0.5,0.5 0 1,0 -1,0  M380.05 228.54000000000002 L380.05 228.54000000000002 387.05 222.54000000000002 380.05 216.54000000000002 M 380.05 216.54000000000002 m -1, 0 a 1,1 0 1,0 2,0 a 1,1 0 1,0 -2,0 M 380.05 216.54000000000002 m -0.5, 0 a 0.5,0.5 0 1,0 1,0 a 0.5,0.5 0 1,0 -1,0  M392.05 222.54000000000002 Q 426.86 222.54000000000002, 461.67 201.36 T 531.29 180.18000000000006 M 543.29 180.18000000000006 m -1, 0 a 1,1 0 1,0 2,0 a 1,1 0 1,0 -2,0 M 543.29 180.18000000000006 m -0.5, 0 a 0.5,0.5 0 1,0 1,0 a 0.5,0.5 0 1,0 -1,0  M543.29 180.18000000000006 L543.29 180.18000000000006 531.29 180.18000000000006 M537.29 186.18000000000006 L537.29 186.18000000000006 537.29 174.18000000000006" id="h621293171" class="r"></path><path d="M 380.05 272.54 m -1, 0 a 1,1 0 1,0 2,0 a 1,1 0 1,0 -2,0 M 380.05 272.54 m -0.5, 0 a 0.5,0.5 0 1,0 1,0 a 0.5,0.5 0 1,0 -1,0  M380.05 272.54 L380.05 272.54 392.05 272.54 M 380.05 278.54 m -1, 0 a 1,1 0 1,0 2,0 a 1,1 0 1,0 -2,0 M 380.05 278.54 m -0.5, 0 a 0.5,0.5 0 1,0 1,0 a 0.5,0.5 0 1,0 -1,0  M380.05 278.54 L380.05 278.54 387.05 272.54 380.05 266.54 M 380.05 266.54 m -1, 0 a 1,1 0 1,0 2,0 a 1,1 0 1,0 -2,0 M 380.05 266.54 m -0.5, 0 a 0.5,0.5 0 1,0 1,0 a 0.5,0.5 0 1,0 -1,0  M392.05 272.54 Q 444.92 272.54, 497.78 345.86 T 603.5 419.18 M 615.5 419.18 m -1, 0 a 1,1 0 1,0 2,0 a 1,1 0 1,0 -2,0 M 615.5 419.18 m -0.5, 0 a 0.5,0.5 0 1,0 1,0 a 0.5,0.5 0 1,0 -1,0  M615.5 419.18 L615.5 419.18 603.5 419.18 M609.5 425.18 L609.5 425.18 609.5 413.18" id="h3003634175" class="r"></path><path d="M 380.05 297.54 m -1, 0 a 1,1 0 1,0 2,0 a 1,1 0 1,0 -2,0 M 380.05 297.54 m -0.5, 0 a 0.5,0.5 0 1,0 1,0 a 0.5,0.5 0 1,0 -1,0  M380.05 297.54 L380.05 297.54 392.05 297.54 M 380.05 303.54 m -1, 0 a 1,1 0 1,0 2,0 a 1,1 0 1,0 -2,0 M 380.05 303.54 m -0.5, 0 a 0.5,0.5 0 1,0 1,0 a 0.5,0.5 0 1,0 -1,0  M380.05 303.54 L380.05 303.54 387.05 297.54 380.05 291.54 M 380.05 291.54 m -1, 0 a 1,1 0 1,0 2,0 a 1,1 0 1,0 -2,0 M 380.05 291.54 m -0.5, 0 a 0.5,0.5 0 1,0 1,0 a 0.5,0.5 0 1,0 -1,0  M392.05 297.54 C 445.2570176117387 297.54, 438.9210176117387 405.96, 402.61 405.96 M 390.61 405.96 m -1, 0 a 1,1 0 1,0 2,0 a 1,1 0 1,0 -2,0 M 390.61 405.96 m -0.5, 0 a 0.5,0.5 0 1,0 1,0 a 0.5,0.5 0 1,0 -1,0  M390.61 405.96 L390.61 405.96 402.61 405.96 M396.61 411.96 L396.61 411.96 396.61 399.96" id="h3089693579" class="r"></path></g><g class="hrs"></g><g class="ts"><svg width="146.12" height="225" x="233.93" y="90.54" id="h1611266215" class="t"><rect height="40" width="146.12" class="th"></rect><text x="13" y="25" class="tht">Posts</text><rect height="185" width="146.12" class="t-bg" y="40"></rect><text x="13" y="61" class="tf pk">id<tspan x="133.12" class="ty">int</tspan></text><path d="M7,14A2,2 0 0,1 5,12A2,2 0 0,1 7,10A2,2 0 0,1 9,12A2,2 0 0,1 7,14M12.65,10C11.83,7.67 9.61,6 7, 6A6, 6 0 0, 0 1, 12A6, 6 0 0, 0 7, 18C9.61, 18 11.83, 16.33 12.65, 14H17V18H21V14H23V10H12.65Z" class="i pk" transform="translate(100.43999969482422, 48) scale(0.65)"></path><text x="13" y="86" class="tf">title<tspan x="133.12" class="ty">string</tspan></text><text x="13" y="111" class="tf">text<tspan x="133.12" class="ty">string</tspan></text><text x="13" y="136" class="tf fk">poster_user_id<tspan x="133.12" class="ty">int</tspan></text><text x="13" y="161" class="tf">post_location<tspan x="133.12" class="ty">string</tspan></text><text x="13" y="186" class="tf fk">post_region_id<tspan x="133.12" class="ty">int</tspan></text><text x="13" y="211" class="tf fk">category_id<tspan x="133.12" class="ty">int</tspan></text></svg><svg width="105.4" height="100" x="285.21" y="348.96" id="h1234641711" class="t"><rect height="40" width="105.4" class="th"></rect><text x="13" y="25" class="tht">Categories</text><rect height="60" width="105.4" class="t-bg" y="40"></rect><text x="13" y="61" class="tf pk">id<tspan x="92.4" class="ty">int</tspan></text><path d="M7,14A2,2 0 0,1 5,12A2,2 0 0,1 7,10A2,2 0 0,1 9,12A2,2 0 0,1 7,14M12.65,10C11.83,7.67 9.61,6 7, 6A6, 6 0 0, 0 1, 12A6, 6 0 0, 0 7, 18C9.61, 18 11.83, 16.33 12.65, 14H17V18H21V14H23V10H12.65Z" class="i pk" transform="translate(59.719999694824224, 48) scale(0.65)"></path><text x="13" y="86" class="tf">name<tspan x="92.4" class="ty">string</tspan></text></svg><svg width="163.5" height="175" x="543.29" y="123.18000000000006" id="h3889921393" class="t"><rect height="40" width="163.5" class="th"></rect><text x="13" y="25" class="tht">Users</text><rect height="135" width="163.5" class="t-bg" y="40"></rect><text x="13" y="61" class="tf pk">id<tspan x="150.5" class="ty">int</tspan></text><path d="M7,14A2,2 0 0,1 5,12A2,2 0 0,1 7,10A2,2 0 0,1 9,12A2,2 0 0,1 7,14M12.65,10C11.83,7.67 9.61,6 7, 6A6, 6 0 0, 0 1, 12A6, 6 0 0, 0 7, 18C9.61, 18 11.83, 16.33 12.65, 14H17V18H21V14H23V10H12.65Z" class="i pk" transform="translate(117.81999969482422, 48) scale(0.65)"></path><text x="13" y="86" class="tf">name<tspan x="150.5" class="ty">string</tspan></text><text x="13" y="111" class="tf">username<tspan x="150.5" class="ty">string</tspan></text><text x="13" y="136" class="tf">password<tspan x="150.5" class="ty">string</tspan></text><text x="13" y="161" class="tf fk">preferred_region_id<tspan x="150.5" class="ty">int</tspan></text></svg><svg width="105.4" height="100" x="615.5" y="362.18" id="h41485699" class="t"><rect height="40" width="105.4" class="th"></rect><text x="13" y="25" class="tht">Regions</text><rect height="60" width="105.4" class="t-bg" y="40"></rect><text x="13" y="61" class="tf pk">id<tspan x="92.4" class="ty">int</tspan></text><path d="M7,14A2,2 0 0,1 5,12A2,2 0 0,1 7,10A2,2 0 0,1 9,12A2,2 0 0,1 7,14M12.65,10C11.83,7.67 9.61,6 7, 6A6, 6 0 0, 0 1, 12A6, 6 0 0, 0 7, 18C9.61, 18 11.83, 16.33 12.65, 14H17V18H21V14H23V10H12.65Z" class="i pk" transform="translate(59.719999694824224, 48) scale(0.65)"></path><text x="13" y="86" class="tf">name<tspan x="92.4" class="ty">string</tspan></text></svg></g></g><text class="qdbd-link" x="10" y="20">www.quickdatabasediagrams.com</text></svg>