<svg class="diagram-root" style="background: #f5f6f6" xmlns="http://www.w3.org/2000/svg" xmlns:xlink="http://www.w3.org/1999/xlink"><style>.diagram-root { font-family: "Helvetica Neue", sans-serif; font-size: 12px; } .t { overflow: visible; } .t-bg { y: 40; fill: #fff;   } .th { fill: #005aa0;   } .tht { fill: #fff; font-size: 14px;  } .tf { fill: #323c46; overflow: visible; } .tf.pk { fill: #005aa0; font-weight: bold; } .tf.fk { font-weight: bold; } .ty { fill: #adb1b5; font-weight: normal; text-anchor: end; } .r { fill: transparent; stroke: #c3c3c3; stroke-width: 1; } .l { stroke: 1; } .i { fill: #c2c7ce; stroke: #c2c7ce; } .i.ix { fill: #afb3b6; stroke: #000; } .fa { fill: transparent; overflow: visible; } .fa .bg.hover { fill: #f7f7f7; } .c { cy: 12; r: 4; stroke: #d2d2dc; fill: #d2d2dc; } .hr { fill: transparent; stroke: #323c46; stroke-opacity: 0.035; stroke-width: 13; } .dc { stroke: #fa5a3c; fill: #fa5a3c; } .x { stroke: white; stroke-width: 1; } .hl .th { fill: #1b9bff; } .hl .tht {  } .fhl .bg { fill: #e7f4ff; } .fhls .bg {  } .r.hl { stroke: #1b9bff; } .dim { opacity: 0.25; }</style><g class="drawing-wrapper" transform="translate(-242, 129) scale(1,1)"><g class="rs"><path d="M 495 -2 m -1, 0 a 1,1 0 1,0 2,0 a 1,1 0 1,0 -2,0 M 495 -2 m -0.5, 0 a 0.5,0.5 0 1,0 1,0 a 0.5,0.5 0 1,0 -1,0  M495 -2 L495 -2 483 -2 M 495 4 m -1, 0 a 1,1 0 1,0 2,0 a 1,1 0 1,0 -2,0 M 495 4 m -0.5, 0 a 0.5,0.5 0 1,0 1,0 a 0.5,0.5 0 1,0 -1,0  M495 4 L495 4 488 -2 495 -8 M 495 -8 m -1, 0 a 1,1 0 1,0 2,0 a 1,1 0 1,0 -2,0 M 495 -8 m -0.5, 0 a 0.5,0.5 0 1,0 1,0 a 0.5,0.5 0 1,0 -1,0  M483 -2 Q 464.01 -2, 445.02 -22 T 407.04 -42 M 395.04 -42 m -1, 0 a 1,1 0 1,0 2,0 a 1,1 0 1,0 -2,0 M 395.04 -42 m -0.5, 0 a 0.5,0.5 0 1,0 1,0 a 0.5,0.5 0 1,0 -1,0  M395.04 -42 L395.04 -42 407.04 -42 M401.04 -36 L401.04 -36 401.04 -48" id="h2558576686" class="r"></path><path d="M 495 23 m -1, 0 a 1,1 0 1,0 2,0 a 1,1 0 1,0 -2,0 M 495 23 m -0.5, 0 a 0.5,0.5 0 1,0 1,0 a 0.5,0.5 0 1,0 -1,0  M495 23 L495 23 483 23 M 495 29 m -1, 0 a 1,1 0 1,0 2,0 a 1,1 0 1,0 -2,0 M 495 29 m -0.5, 0 a 0.5,0.5 0 1,0 1,0 a 0.5,0.5 0 1,0 -1,0  M495 29 L495 29 488 23 495 17 M 495 17 m -1, 0 a 1,1 0 1,0 2,0 a 1,1 0 1,0 -2,0 M 495 17 m -0.5, 0 a 0.5,0.5 0 1,0 1,0 a 0.5,0.5 0 1,0 -1,0  M483 23 Q 463.27 23, 443.53 52.5 T 404.06 82 M 392.06 82 m -1, 0 a 1,1 0 1,0 2,0 a 1,1 0 1,0 -2,0 M 392.06 82 m -0.5, 0 a 0.5,0.5 0 1,0 1,0 a 0.5,0.5 0 1,0 -1,0  M392.06 82 L392.06 82 404.06 82 M398.06 88 L398.06 88 398.06 76" id="h518064389" class="r"></path><path d="M 599.38 168 m -1, 0 a 1,1 0 1,0 2,0 a 1,1 0 1,0 -2,0 M 599.38 168 m -0.5, 0 a 0.5,0.5 0 1,0 1,0 a 0.5,0.5 0 1,0 -1,0  M599.38 168 L599.38 168 611.38 168 M 599.38 174 m -1, 0 a 1,1 0 1,0 2,0 a 1,1 0 1,0 -2,0 M 599.38 174 m -0.5, 0 a 0.5,0.5 0 1,0 1,0 a 0.5,0.5 0 1,0 -1,0  M599.38 174 L599.38 174 606.38 168 599.38 162 M 599.38 162 m -1, 0 a 1,1 0 1,0 2,0 a 1,1 0 1,0 -2,0 M 599.38 162 m -0.5, 0 a 0.5,0.5 0 1,0 1,0 a 0.5,0.5 0 1,0 -1,0  M611.38 168 C 675.364 168, 670.12 -27, 620.12 -27 M 608.12 -27 m -1, 0 a 1,1 0 1,0 2,0 a 1,1 0 1,0 -2,0 M 608.12 -27 m -0.5, 0 a 0.5,0.5 0 1,0 1,0 a 0.5,0.5 0 1,0 -1,0  M608.12 -27 L608.12 -27 620.12 -27 M614.12 -21 L614.12 -21 614.12 -33" id="h2303740299" class="r"></path><path d="M 599.38 193 m -1, 0 a 1,1 0 1,0 2,0 a 1,1 0 1,0 -2,0 M 599.38 193 m -0.5, 0 a 0.5,0.5 0 1,0 1,0 a 0.5,0.5 0 1,0 -1,0  M599.38 193 L599.38 193 611.38 193 M 599.38 199 m -1, 0 a 1,1 0 1,0 2,0 a 1,1 0 1,0 -2,0 M 599.38 199 m -0.5, 0 a 0.5,0.5 0 1,0 1,0 a 0.5,0.5 0 1,0 -1,0  M599.38 199 L599.38 199 606.38 193 599.38 187 M 599.38 187 m -1, 0 a 1,1 0 1,0 2,0 a 1,1 0 1,0 -2,0 M 599.38 187 m -0.5, 0 a 0.5,0.5 0 1,0 1,0 a 0.5,0.5 0 1,0 -1,0  M611.38 193 Q 633.79 193, 656.19 193 T 701 193 M 713 193 m -1, 0 a 1,1 0 1,0 2,0 a 1,1 0 1,0 -2,0 M 713 193 m -0.5, 0 a 0.5,0.5 0 1,0 1,0 a 0.5,0.5 0 1,0 -1,0  M713 193 L713 193 701 193 M707 199 L707 199 707 187" id="h3766548983" class="r"></path></g><g class="hrs"></g><g class="ts"><svg width="126.04" height="100" x="269" y="-99" id="h16875077" class="t"><rect height="40" width="126.04" class="th"></rect><text x="13" y="25" class="tht">Doctors</text><rect height="60" width="126.04" class="t-bg" y="40"></rect><text x="13" y="61" class="tf pk">DoctorID<tspan x="113.04" class="ty">int</tspan></text><path d="M7,14A2,2 0 0,1 5,12A2,2 0 0,1 7,10A2,2 0 0,1 9,12A2,2 0 0,1 7,14M12.65,10C11.83,7.67 9.61,6 7, 6A6, 6 0 0, 0 1, 12A6, 6 0 0, 0 7, 18C9.61, 18 11.83, 16.33 12.65, 14H17V18H21V14H23V10H12.65Z" class="i pk" transform="translate(80.35999969482423, 48) scale(0.65)"></path><text x="13" y="86" class="tf">Name<tspan x="113.04" class="ty">string</tspan></text></svg><svg width="128.06" height="100" x="264" y="25" id="h3676580549" class="t"><rect height="40" width="128.06" class="th"></rect><text x="13" y="25" class="tht">Patients</text><rect height="60" width="128.06" class="t-bg" y="40"></rect><text x="13" y="61" class="tf pk">PatientID<tspan x="115.06" class="ty">int</tspan></text><path d="M7,14A2,2 0 0,1 5,12A2,2 0 0,1 7,10A2,2 0 0,1 9,12A2,2 0 0,1 7,14M12.65,10C11.83,7.67 9.61,6 7, 6A6, 6 0 0, 0 1, 12A6, 6 0 0, 0 7, 18C9.61, 18 11.83, 16.33 12.65, 14H17V18H21V14H23V10H12.65Z" class="i pk" transform="translate(82.37999969482422, 48) scale(0.65)"></path><text x="13" y="86" class="tf">Name<tspan x="115.06" class="ty">string</tspan></text></svg><svg width="113.12" height="125" x="495" y="-84" id="h3280351983" class="t"><rect height="40" width="113.12" class="th"></rect><text x="13" y="25" class="tht">Visits</text><rect height="85" width="113.12" class="t-bg" y="40"></rect><text x="13" y="61" class="tf pk">VisitID<tspan x="100.12" class="ty">int</tspan></text><path d="M7,14A2,2 0 0,1 5,12A2,2 0 0,1 7,10A2,2 0 0,1 9,12A2,2 0 0,1 7,14M12.65,10C11.83,7.67 9.61,6 7, 6A6, 6 0 0, 0 1, 12A6, 6 0 0, 0 7, 18C9.61, 18 11.83, 16.33 12.65, 14H17V18H21V14H23V10H12.65Z" class="i pk" transform="translate(67.43999969482422, 48) scale(0.65)"></path><text x="13" y="86" class="tf fk">DoctorID<tspan x="100.12" class="ty">int</tspan></text><text x="13" y="111" class="tf fk">PatientID<tspan x="100.12" class="ty">int</tspan></text></svg><svg width="143.38" height="125" x="456" y="86" id="h3047656030" class="t"><rect height="40" width="143.38" class="th"></rect><text x="13" y="25" class="tht">Diagnoses</text><rect height="85" width="143.38" class="t-bg" y="40"></rect><text x="13" y="61" class="tf pk">DiagnosisID<tspan x="130.38" class="ty">int</tspan></text><path d="M7,14A2,2 0 0,1 5,12A2,2 0 0,1 7,10A2,2 0 0,1 9,12A2,2 0 0,1 7,14M12.65,10C11.83,7.67 9.61,6 7, 6A6, 6 0 0, 0 1, 12A6, 6 0 0, 0 7, 18C9.61, 18 11.83, 16.33 12.65, 14H17V18H21V14H23V10H12.65Z" class="i pk" transform="translate(97.69999969482421, 48) scale(0.65)"></path><text x="13" y="86" class="tf fk">VisitID<tspan x="130.38" class="ty">int</tspan></text><text x="13" y="111" class="tf fk">DiseaseID<tspan x="130.38" class="ty">int?</tspan></text></svg><svg width="134.04" height="100" x="713" y="136" id="h1794948770" class="t"><rect height="40" width="134.04" class="th"></rect><text x="13" y="25" class="tht">Diseases</text><rect height="60" width="134.04" class="t-bg" y="40"></rect><text x="13" y="61" class="tf pk">DiseaseID<tspan x="121.03999999999999" class="ty">int</tspan></text><path d="M7,14A2,2 0 0,1 5,12A2,2 0 0,1 7,10A2,2 0 0,1 9,12A2,2 0 0,1 7,14M12.65,10C11.83,7.67 9.61,6 7, 6A6, 6 0 0, 0 1, 12A6, 6 0 0, 0 7, 18C9.61, 18 11.83, 16.33 12.65, 14H17V18H21V14H23V10H12.65Z" class="i pk" transform="translate(88.35999969482421, 48) scale(0.65)"></path><text x="13" y="86" class="tf">Name<tspan x="121.03999999999999" class="ty">string</tspan></text></svg></g></g><text class="qdbd-link" x="10" y="20">www.quickdatabasediagrams.com</text></svg>