<svg class="diagram-root" style="background: #f5f6f6" xmlns="http://www.w3.org/2000/svg" xmlns:xlink="http://www.w3.org/1999/xlink"><style>.diagram-root { font-family: "Helvetica Neue", sans-serif; font-size: 12px; } .t { overflow: visible; } .t-bg { y: 40; fill: #fff;   } .th { fill: #005aa0;   } .tht { fill: #fff; font-size: 14px;  } .tf { fill: #323c46; overflow: visible; } .tf.pk { fill: #005aa0; font-weight: bold; } .tf.fk { font-weight: bold; } .ty { fill: #adb1b5; font-weight: normal; text-anchor: end; } .r { fill: transparent; stroke: #c3c3c3; stroke-width: 1; } .l { stroke: 1; } .i { fill: #c2c7ce; stroke: #c2c7ce; } .i.ix { fill: #afb3b6; stroke: #000; } .fa { fill: transparent; overflow: visible; } .fa .bg.hover { fill: #f7f7f7; } .c { cy: 12; r: 4; stroke: #d2d2dc; fill: #d2d2dc; } .hr { fill: transparent; stroke: #323c46; stroke-opacity: 0.035; stroke-width: 13; } .dc { stroke: #fa5a3c; fill: #fa5a3c; } .x { stroke: white; stroke-width: 1; } .hl .th { fill: #1b9bff; } .hl .tht {  } .fhl .bg { fill: #e7f4ff; } .fhls .bg {  } .r.hl { stroke: #1b9bff; } .dim { opacity: 0.25; }</style><g class="drawing-wrapper" transform="translate(126.71000000000001, -7.310000000000002) scale(1,1)"><g class="rs"><path d="M 0.65 304.57 m -1, 0 a 1,1 0 1,0 2,0 a 1,1 0 1,0 -2,0 M 0.65 304.57 m -0.5, 0 a 0.5,0.5 0 1,0 1,0 a 0.5,0.5 0 1,0 -1,0  M0.65 304.57 L0.65 304.57 12.65 304.57 M 0.65 310.57 m -1, 0 a 1,1 0 1,0 2,0 a 1,1 0 1,0 -2,0 M 0.65 310.57 m -0.5, 0 a 0.5,0.5 0 1,0 1,0 a 0.5,0.5 0 1,0 -1,0  M0.65 310.57 L0.65 310.57 7.65 304.57 0.65 298.57 M 0.65 298.57 m -1, 0 a 1,1 0 1,0 2,0 a 1,1 0 1,0 -2,0 M 0.65 298.57 m -0.5, 0 a 0.5,0.5 0 1,0 1,0 a 0.5,0.5 0 1,0 -1,0  M12.65 304.57 C 70.394 304.57, 67.49000000000001 109.37, 17.490000000000002 109.37 M 5.49 109.37 m -1, 0 a 1,1 0 1,0 2,0 a 1,1 0 1,0 -2,0 M 5.49 109.37 m -0.5, 0 a 0.5,0.5 0 1,0 1,0 a 0.5,0.5 0 1,0 -1,0  M5.49 109.37 L5.49 109.37 17.490000000000002 109.37 M11.49 115.37 L11.49 115.37 11.49 103.37" id="h1043936442" class="r"></path><path d="M 300 316.28999999999996 m -1, 0 a 1,1 0 1,0 2,0 a 1,1 0 1,0 -2,0 M 300 316.28999999999996 m -0.5, 0 a 0.5,0.5 0 1,0 1,0 a 0.5,0.5 0 1,0 -1,0  M300 316.28999999999996 L300 316.28999999999996 288 316.28999999999996 M 300 322.28999999999996 m -1, 0 a 1,1 0 1,0 2,0 a 1,1 0 1,0 -2,0 M 300 322.28999999999996 m -0.5, 0 a 0.5,0.5 0 1,0 1,0 a 0.5,0.5 0 1,0 -1,0  M300 322.28999999999996 L300 322.28999999999996 293 316.28999999999996 300 310.28999999999996 M 300 310.28999999999996 m -1, 0 a 1,1 0 1,0 2,0 a 1,1 0 1,0 -2,0 M 300 310.28999999999996 m -0.5, 0 a 0.5,0.5 0 1,0 1,0 a 0.5,0.5 0 1,0 -1,0  M288 316.28999999999996 Q 220.38 316.28999999999996, 152.75 212.83 T 17.490000000000002 109.37 M 5.49 109.37 m -1, 0 a 1,1 0 1,0 2,0 a 1,1 0 1,0 -2,0 M 5.49 109.37 m -0.5, 0 a 0.5,0.5 0 1,0 1,0 a 0.5,0.5 0 1,0 -1,0  M5.49 109.37 L5.49 109.37 17.490000000000002 109.37 M11.49 115.37 L11.49 115.37 11.49 103.37" id="h1406022261" class="r"></path><path d="M 300 341.28999999999996 m -1, 0 a 1,1 0 1,0 2,0 a 1,1 0 1,0 -2,0 M 300 341.28999999999996 m -0.5, 0 a 0.5,0.5 0 1,0 1,0 a 0.5,0.5 0 1,0 -1,0  M300 341.28999999999996 L300 341.28999999999996 288 341.28999999999996 M 300 347.28999999999996 m -1, 0 a 1,1 0 1,0 2,0 a 1,1 0 1,0 -2,0 M 300 347.28999999999996 m -0.5, 0 a 0.5,0.5 0 1,0 1,0 a 0.5,0.5 0 1,0 -1,0  M300 347.28999999999996 L300 347.28999999999996 293 341.28999999999996 300 335.28999999999996 M 300 335.28999999999996 m -1, 0 a 1,1 0 1,0 2,0 a 1,1 0 1,0 -2,0 M 300 335.28999999999996 m -0.5, 0 a 0.5,0.5 0 1,0 1,0 a 0.5,0.5 0 1,0 -1,0  M288 341.28999999999996 Q 220.38 341.28999999999996, 152.75 225.33 T 17.490000000000002 109.37 M 5.49 109.37 m -1, 0 a 1,1 0 1,0 2,0 a 1,1 0 1,0 -2,0 M 5.49 109.37 m -0.5, 0 a 0.5,0.5 0 1,0 1,0 a 0.5,0.5 0 1,0 -1,0  M5.49 109.37 L5.49 109.37 17.490000000000002 109.37 M11.49 115.37 L11.49 115.37 11.49 103.37" id="h4268783467" class="r"></path><path d="M 413.38 366.28999999999996 m -1, 0 a 1,1 0 1,0 2,0 a 1,1 0 1,0 -2,0 M 413.38 366.28999999999996 m -0.5, 0 a 0.5,0.5 0 1,0 1,0 a 0.5,0.5 0 1,0 -1,0  M413.38 366.28999999999996 L413.38 366.28999999999996 425.38 366.28999999999996 M 413.38 372.28999999999996 m -1, 0 a 1,1 0 1,0 2,0 a 1,1 0 1,0 -2,0 M 413.38 372.28999999999996 m -0.5, 0 a 0.5,0.5 0 1,0 1,0 a 0.5,0.5 0 1,0 -1,0  M413.38 372.28999999999996 L413.38 372.28999999999996 420.38 366.28999999999996 413.38 360.28999999999996 M 413.38 360.28999999999996 m -1, 0 a 1,1 0 1,0 2,0 a 1,1 0 1,0 -2,0 M 413.38 360.28999999999996 m -0.5, 0 a 0.5,0.5 0 1,0 1,0 a 0.5,0.5 0 1,0 -1,0  M425.38 366.28999999999996 Q 443.15 366.28999999999996, 460.92 365.83 T 496.46 365.36 M 508.46 365.36 m -1, 0 a 1,1 0 1,0 2,0 a 1,1 0 1,0 -2,0 M 508.46 365.36 m -0.5, 0 a 0.5,0.5 0 1,0 1,0 a 0.5,0.5 0 1,0 -1,0  M508.46 365.36 L508.46 365.36 496.46 365.36 M502.46 371.36 L502.46 371.36 502.46 359.36" id="h741668167" class="r"></path><path d="M 126 588 m -1, 0 a 1,1 0 1,0 2,0 a 1,1 0 1,0 -2,0 M 126 588 m -0.5, 0 a 0.5,0.5 0 1,0 1,0 a 0.5,0.5 0 1,0 -1,0  M126 588 L126 588 114 588 M 126 594 m -1, 0 a 1,1 0 1,0 2,0 a 1,1 0 1,0 -2,0 M 126 594 m -0.5, 0 a 0.5,0.5 0 1,0 1,0 a 0.5,0.5 0 1,0 -1,0  M126 594 L126 594 119 588 126 582 M 126 582 m -1, 0 a 1,1 0 1,0 2,0 a 1,1 0 1,0 -2,0 M 126 582 m -0.5, 0 a 0.5,0.5 0 1,0 1,0 a 0.5,0.5 0 1,0 -1,0  M114 588 Q 89.88 588, 65.75 348.69 T 17.490000000000002 109.37 M 5.49 109.37 m -1, 0 a 1,1 0 1,0 2,0 a 1,1 0 1,0 -2,0 M 5.49 109.37 m -0.5, 0 a 0.5,0.5 0 1,0 1,0 a 0.5,0.5 0 1,0 -1,0  M5.49 109.37 L5.49 109.37 17.490000000000002 109.37 M11.49 115.37 L11.49 115.37 11.49 103.37" id="h1851420357" class="r"></path><path d="M 247.37 613 m -1, 0 a 1,1 0 1,0 2,0 a 1,1 0 1,0 -2,0 M 247.37 613 m -0.5, 0 a 0.5,0.5 0 1,0 1,0 a 0.5,0.5 0 1,0 -1,0  M247.37 613 L247.37 613 259.37 613 M 247.37 619 m -1, 0 a 1,1 0 1,0 2,0 a 1,1 0 1,0 -2,0 M 247.37 619 m -0.5, 0 a 0.5,0.5 0 1,0 1,0 a 0.5,0.5 0 1,0 -1,0  M247.37 619 L247.37 619 254.37 613 247.37 607 M 247.37 607 m -1, 0 a 1,1 0 1,0 2,0 a 1,1 0 1,0 -2,0 M 247.37 607 m -0.5, 0 a 0.5,0.5 0 1,0 1,0 a 0.5,0.5 0 1,0 -1,0  M259.37 613 C 574.986 613, 475.38 291.28999999999996, 425.38 291.28999999999996 M 413.38 291.28999999999996 m -1, 0 a 1,1 0 1,0 2,0 a 1,1 0 1,0 -2,0 M 413.38 291.28999999999996 m -0.5, 0 a 0.5,0.5 0 1,0 1,0 a 0.5,0.5 0 1,0 -1,0  M413.38 291.28999999999996 L413.38 291.28999999999996 425.38 291.28999999999996 M419.38 297.28999999999996 L419.38 297.28999999999996 419.38 285.28999999999996" id="h4217405935" class="r"></path><path d="M 300.9 493.36 m -1, 0 a 1,1 0 1,0 2,0 a 1,1 0 1,0 -2,0 M 300.9 493.36 m -0.5, 0 a 0.5,0.5 0 1,0 1,0 a 0.5,0.5 0 1,0 -1,0  M300.9 493.36 L300.9 493.36 288.9 493.36 M 300.9 499.36 m -1, 0 a 1,1 0 1,0 2,0 a 1,1 0 1,0 -2,0 M 300.9 499.36 m -0.5, 0 a 0.5,0.5 0 1,0 1,0 a 0.5,0.5 0 1,0 -1,0  M300.9 499.36 L300.9 499.36 293.9 493.36 300.9 487.36 M 300.9 487.36 m -1, 0 a 1,1 0 1,0 2,0 a 1,1 0 1,0 -2,0 M 300.9 487.36 m -0.5, 0 a 0.5,0.5 0 1,0 1,0 a 0.5,0.5 0 1,0 -1,0  M288.9 493.36 C 237.46 493.36, 238 291.28999999999996, 288 291.28999999999996 M 300 291.28999999999996 m -1, 0 a 1,1 0 1,0 2,0 a 1,1 0 1,0 -2,0 M 300 291.28999999999996 m -0.5, 0 a 0.5,0.5 0 1,0 1,0 a 0.5,0.5 0 1,0 -1,0  M300 291.28999999999996 L300 291.28999999999996 288 291.28999999999996 M294 297.28999999999996 L294 297.28999999999996 294 285.28999999999996" id="h883084757" class="r"></path><path d="M 300.9 518.36 m -1, 0 a 1,1 0 1,0 2,0 a 1,1 0 1,0 -2,0 M 300.9 518.36 m -0.5, 0 a 0.5,0.5 0 1,0 1,0 a 0.5,0.5 0 1,0 -1,0  M300.9 518.36 L300.9 518.36 288.9 518.36 M 300.9 524.36 m -1, 0 a 1,1 0 1,0 2,0 a 1,1 0 1,0 -2,0 M 300.9 524.36 m -0.5, 0 a 0.5,0.5 0 1,0 1,0 a 0.5,0.5 0 1,0 -1,0  M300.9 524.36 L300.9 524.36 293.9 518.36 300.9 512.36 M 300.9 512.36 m -1, 0 a 1,1 0 1,0 2,0 a 1,1 0 1,0 -2,0 M 300.9 512.36 m -0.5, 0 a 0.5,0.5 0 1,0 1,0 a 0.5,0.5 0 1,0 -1,0  M288.9 518.36 Q 219.83 518.36, 150.77 386.47 T 12.65 254.57 M 0.65 254.57 m -1, 0 a 1,1 0 1,0 2,0 a 1,1 0 1,0 -2,0 M 0.65 254.57 m -0.5, 0 a 0.5,0.5 0 1,0 1,0 a 0.5,0.5 0 1,0 -1,0  M0.65 254.57 L0.65 254.57 12.65 254.57 M6.65 260.57 L6.65 260.57 6.65 248.57" id="h2561147591" class="r"></path><path d="M 314.48 135.64 m -1, 0 a 1,1 0 1,0 2,0 a 1,1 0 1,0 -2,0 M 314.48 135.64 m -0.5, 0 a 0.5,0.5 0 1,0 1,0 a 0.5,0.5 0 1,0 -1,0  M314.48 135.64 L314.48 135.64 302.48 135.64 M 314.48 141.64 m -1, 0 a 1,1 0 1,0 2,0 a 1,1 0 1,0 -2,0 M 314.48 141.64 m -0.5, 0 a 0.5,0.5 0 1,0 1,0 a 0.5,0.5 0 1,0 -1,0  M314.48 141.64 L314.48 141.64 307.48 135.64 314.48 129.64 M 314.48 129.64 m -1, 0 a 1,1 0 1,0 2,0 a 1,1 0 1,0 -2,0 M 314.48 129.64 m -0.5, 0 a 0.5,0.5 0 1,0 1,0 a 0.5,0.5 0 1,0 -1,0  M302.48 135.64 C 229.31199999999998 135.64, 238 291.28999999999996, 288 291.28999999999996 M 300 291.28999999999996 m -1, 0 a 1,1 0 1,0 2,0 a 1,1 0 1,0 -2,0 M 300 291.28999999999996 m -0.5, 0 a 0.5,0.5 0 1,0 1,0 a 0.5,0.5 0 1,0 -1,0  M300 291.28999999999996 L300 291.28999999999996 288 291.28999999999996 M294 297.28999999999996 L294 297.28999999999996 294 285.28999999999996" id="h3556885759" class="r"></path><path d="M 442.41 160.64 m -1, 0 a 1,1 0 1,0 2,0 a 1,1 0 1,0 -2,0 M 442.41 160.64 m -0.5, 0 a 0.5,0.5 0 1,0 1,0 a 0.5,0.5 0 1,0 -1,0  M442.41 160.64 L442.41 160.64 454.41 160.64 M 442.41 166.64 m -1, 0 a 1,1 0 1,0 2,0 a 1,1 0 1,0 -2,0 M 442.41 166.64 m -0.5, 0 a 0.5,0.5 0 1,0 1,0 a 0.5,0.5 0 1,0 -1,0  M442.41 166.64 L442.41 166.64 449.41 160.64 442.41 154.64 M 442.41 154.64 m -1, 0 a 1,1 0 1,0 2,0 a 1,1 0 1,0 -2,0 M 442.41 154.64 m -0.5, 0 a 0.5,0.5 0 1,0 1,0 a 0.5,0.5 0 1,0 -1,0  M454.41 160.64 C 671.3183003639057 160.64, 606.6023003639057 238.45, 562.27 238.45 M 550.27 238.45 m -1, 0 a 1,1 0 1,0 2,0 a 1,1 0 1,0 -2,0 M 550.27 238.45 m -0.5, 0 a 0.5,0.5 0 1,0 1,0 a 0.5,0.5 0 1,0 -1,0  M550.27 238.45 L550.27 238.45 562.27 238.45 M556.27 244.45 L556.27 244.45 556.27 232.45" id="h417497003" class="r"></path><path d="M 127.14 94.31 m -1, 0 a 1,1 0 1,0 2,0 a 1,1 0 1,0 -2,0 M 127.14 94.31 m -0.5, 0 a 0.5,0.5 0 1,0 1,0 a 0.5,0.5 0 1,0 -1,0  M127.14 94.31 L127.14 94.31 115.14 94.31 M121.14 100.31 L121.14 100.31 121.14 88.31 M115.14 94.31 Q 90.73 94.31, 66.32 101.84 T 17.490000000000002 109.37 M 5.49 109.37 m -1, 0 a 1,1 0 1,0 2,0 a 1,1 0 1,0 -2,0 M 5.49 109.37 m -0.5, 0 a 0.5,0.5 0 1,0 1,0 a 0.5,0.5 0 1,0 -1,0  M5.49 109.37 L5.49 109.37 17.490000000000002 109.37 M11.49 115.37 L11.49 115.37 11.49 103.37" id="h453673317" class="r"></path></g><g class="hrs"></g><g class="ts"><svg width="113.38" height="150" x="300" y="234.29" id="h3829905542" class="t"><rect height="40" width="113.38" class="th"></rect><text x="13" y="25" class="tht">Matches</text><rect height="110" width="113.38" class="t-bg"></rect><text x="13" y="61" class="tf pk">id<tspan x="100.38" class="ty">int</tspan></text><path d="M7,14A2,2 0 0,1 5,12A2,2 0 0,1 7,10A2,2 0 0,1 9,12A2,2 0 0,1 7,14M12.65,10C11.83,7.67 9.61,6 7, 6A6, 6 0 0, 0 1, 12A6, 6 0 0, 0 7, 18C9.61, 18 11.83, 16.33 12.65, 14H17V18H21V14H23V10H12.65Z" class="i pk" transform="translate(67.706171875, 48) scale(0.65)"></path><text x="13" y="86" class="tf fk">team1_id<tspan x="100.38" class="ty">int</tspan></text><text x="13" y="111" class="tf fk">team2_id<tspan x="100.38" class="ty">int</tspan></text><text x="13" y="136" class="tf fk">season_id<tspan x="100.38" class="ty">int</tspan></text></svg><svg width="107.37" height="125" x="300.9" y="436.36" id="h2207534861" class="t"><rect height="40" width="107.37" class="th"></rect><text x="13" y="25" class="tht">Goals</text><rect height="85" width="107.37" class="t-bg"></rect><text x="13" y="61" class="tf fk">match_id<tspan x="94.37" class="ty">int</tspan></text><text x="13" y="86" class="tf fk">player_id<tspan x="94.37" class="ty">int</tspan></text><text x="13" y="111" class="tf">goals<tspan x="94.37" class="ty">int</tspan></text></svg><svg width="127.93" height="100" x="314.48" y="78.64" id="h1248770363" class="t"><rect height="40" width="127.93" class="th"></rect><text x="13" y="25" class="tht">RefereesGames</text><rect height="60" width="127.93" class="t-bg"></rect><text x="13" y="61" class="tf fk">match_id<tspan x="114.93" class="ty">int</tspan></text><text x="13" y="86" class="tf fk">referee_id<tspan x="114.93" class="ty">int</tspan></text></svg><svg width="90" height="100" x="460.27" y="181.45" id="h332749422" class="t"><rect height="40" width="90" class="th"></rect><text x="13" y="25" class="tht">Referees</text><rect height="60" width="90" class="t-bg"></rect><text x="13" y="61" class="tf pk">id<tspan x="77" class="ty">int</tspan></text><path d="M7,14A2,2 0 0,1 5,12A2,2 0 0,1 7,10A2,2 0 0,1 9,12A2,2 0 0,1 7,14M12.65,10C11.83,7.67 9.61,6 7, 6A6, 6 0 0, 0 1, 12A6, 6 0 0, 0 7, 18C9.61, 18 11.83, 16.33 12.65, 14H17V18H21V14H23V10H12.65Z" class="i pk" transform="translate(44.326171875, 48) scale(0.65)"></path><text x="13" y="86" class="tf">name<tspan x="77" class="ty">int</tspan></text></svg><svg width="112.04" height="150" x="508.46" y="308.36" id="h447324019" class="t"><rect height="40" width="112.04" class="th"></rect><text x="13" y="25" class="tht">Seasons</text><rect height="110" width="112.04" class="t-bg"></rect><text x="13" y="61" class="tf pk">id<tspan x="99.04" class="ty">int</tspan></text><path d="M7,14A2,2 0 0,1 5,12A2,2 0 0,1 7,10A2,2 0 0,1 9,12A2,2 0 0,1 7,14M12.65,10C11.83,7.67 9.61,6 7, 6A6, 6 0 0, 0 1, 12A6, 6 0 0, 0 7, 18C9.61, 18 11.83, 16.33 12.65, 14H17V18H21V14H23V10H12.65Z" class="i pk" transform="translate(66.366171875, 48) scale(0.65)"></path><text x="13" y="86" class="tf">name<tspan x="99.04" class="ty">int</tspan></text><text x="13" y="111" class="tf">start_date<tspan x="99.04" class="ty">int</tspan></text><text x="13" y="136" class="tf">end_date<tspan x="99.04" class="ty">int</tspan></text></svg><svg width="105.36" height="100" x="-99.87" y="52.370000000000005" id="h3010508784" class="t"><rect height="40" width="105.36" class="th"></rect><text x="13" y="25" class="tht">Teams</text><rect height="60" width="105.36" class="t-bg"></rect><text x="13" y="61" class="tf pk">id<tspan x="92.36" class="ty">int</tspan></text><path d="M7,14A2,2 0 0,1 5,12A2,2 0 0,1 7,10A2,2 0 0,1 9,12A2,2 0 0,1 7,14M12.65,10C11.83,7.67 9.61,6 7, 6A6, 6 0 0, 0 1, 12A6, 6 0 0, 0 7, 18C9.61, 18 11.83, 16.33 12.65, 14H17V18H21V14H23V10H12.65Z" class="i pk" transform="translate(59.686171875, 48) scale(0.65)"></path><text x="13" y="86" class="tf">name<tspan x="92.36" class="ty">string</tspan></text></svg><svg width="105.36" height="125" x="-104.71000000000001" y="197.57" id="h4103274130" class="t"><rect height="40" width="105.36" class="th"></rect><text x="13" y="25" class="tht">Players</text><rect height="85" width="105.36" class="t-bg"></rect><text x="13" y="61" class="tf pk">id<tspan x="92.36" class="ty">int</tspan></text><path d="M7,14A2,2 0 0,1 5,12A2,2 0 0,1 7,10A2,2 0 0,1 9,12A2,2 0 0,1 7,14M12.65,10C11.83,7.67 9.61,6 7, 6A6, 6 0 0, 0 1, 12A6, 6 0 0, 0 7, 18C9.61, 18 11.83, 16.33 12.65, 14H17V18H21V14H23V10H12.65Z" class="i pk" transform="translate(59.686171875, 48) scale(0.65)"></path><text x="13" y="86" class="tf">name<tspan x="92.36" class="ty">string</tspan></text><text x="13" y="111" class="tf fk">team_id<tspan x="92.36" class="ty">int</tspan></text></svg><svg width="101.37" height="100" x="127.14" y="37.31" id="h2458959691" class="t"><rect height="40" width="101.37" class="th"></rect><text x="13" y="25" class="tht">Rankings</text><rect height="60" width="101.37" class="t-bg"></rect><text x="13" y="61" class="tf fk">team_id<tspan x="88.37" class="ty">int</tspan></text><text x="13" y="86" class="tf">ranking<tspan x="88.37" class="ty">int</tspan></text></svg><svg width="121.37" height="150" x="126" y="506" id="h4272511941" class="t"><rect height="40" width="121.37" class="th"></rect><text x="13" y="25" class="tht">Outcome</text><rect height="110" width="121.37" class="t-bg"></rect><text x="13" y="61" class="tf pk">id<tspan x="108.37" class="ty">int</tspan></text><path d="M7,14A2,2 0 0,1 5,12A2,2 0 0,1 7,10A2,2 0 0,1 9,12A2,2 0 0,1 7,14M12.65,10C11.83,7.67 9.61,6 7, 6A6, 6 0 0, 0 1, 12A6, 6 0 0, 0 7, 18C9.61, 18 11.83, 16.33 12.65, 14H17V18H21V14H23V10H12.65Z" class="i pk" transform="translate(75.696171875, 48) scale(0.65)"></path><text x="13" y="86" class="tf fk">team_id<tspan x="108.37" class="ty">int</tspan></text><text x="13" y="111" class="tf fk">match_id<tspan x="108.37" class="ty">int</tspan></text><text x="13" y="136" class="tf">outcome<tspan x="108.37" class="ty">string</tspan></text></svg></g></g><text class="qdbd-link" x="10" y="20">www.quickdatabasediagrams.com</text></svg>